PathFileType	4	(X/Y/Z)	C:\Users\Basilio\Documents\Thesis Gigler\squatting_fais\c3dfiles\077\SLS_back_pre2\markers_experimental.trc
DataRate	CameraRate	NumFrames	NumMarkers	Units	OrigDataRate	OrigDataStartFrame	OrigNumFrames
200.000000	200.000000	4	60	mm	200.000000	960	1537
Frame#	Time	FHD			RBHD			C7			T10			CLAV			LSHO			LUUPA			LMUPA			LDUPA			LLEP			LMEP			LRAD			LUL			LRFIN			RSHO			RUPA1			RMUPA			RDUPA			RLEP			RMEP			RRAD			RUL			RUFIN			LASI			RASI			USACR			LSACR			RSACR			LTHI1			LTHI2			LTHI3			LTHI4			LLFC			LMFC			LTIB1			LTIB2			LTIB3			LTIB4			LLMAL			LHEE			LMT1			LMT2			LMT5			RTHI			RTHI2			RTHI3			RTHI4			RLFC			RMFC			RTIB1			RTIB2			RTIB3			RTIB4			RLMAL			RMMAL			RHEE			RMT1			RMT2			RMT5			LBHD			
		X1	Y1	Z1	X2	Y2	Z2	X3	Y3	Z3	X4	Y4	Z4	X5	Y5	Z5	X6	Y6	Z6	X7	Y7	Z7	X8	Y8	Z8	X9	Y9	Z9	X10	Y10	Z10	X11	Y11	Z11	X12	Y12	Z12	X13	Y13	Z13	X14	Y14	Z14	X15	Y15	Z15	X16	Y16	Z16	X17	Y17	Z17	X18	Y18	Z18	X19	Y19	Z19	X20	Y20	Z20	X21	Y21	Z21	X22	Y22	Z22	X23	Y23	Z23	X24	Y24	Z24	X25	Y25	Z25	X26	Y26	Z26	X27	Y27	Z27	X28	Y28	Z28	X29	Y29	Z29	X30	Y30	Z30	X31	Y31	Z31	X32	Y32	Z32	X33	Y33	Z33	X34	Y34	Z34	X35	Y35	Z35	X36	Y36	Z36	X37	Y37	Z37	X38	Y38	Z38	X39	Y39	Z39	X40	Y40	Z40	X41	Y41	Z41	X42	Y42	Z42	X43	Y43	Z43	X44	Y44	Z44	X45	Y45	Z45	X46	Y46	Z46	X47	Y47	Z47	X48	Y48	Z48	X49	Y49	Z49	X50	Y50	Z50	X51	Y51	Z51	X52	Y52	Z52	X53	Y53	Z53	X54	Y54	Z54	X55	Y55	Z55	X56	Y56	Z56	X57	Y57	Z57	X58	Y58	Z58	X59	Y59	Z59	X60	Y60	Z60	

961	4.8	-15.86387157440186	1492.808349609375	-1067.522705078125	-160.3373565673828	1385.185180664063	-983.079284667969	-219.3883972167969	1283.307250976563	-1060.347045898438	-381.5551147460938	1021.044677734375	-1012.074035644531	-83.44519042968751	1176.981689453125	-1056.900268554688	-101.2814331054688	1241.321411132813	-1217.167358398438	33.44841766357423	1192.81103515625	-1347.02392578125	67.8942108154297	1218.315063476563	-1321.726806640625	99.98281097412112	1187.165161132813	-1363.3505859375	165.2101745605469	1193.531372070313	-1369.244140625	171.9905395507813	1122.1435546875	-1345.130249023438	469.4245605468751	1219.222412109375	-1288.642944335938	466.8884582519532	1218.7255859375	-1368.857177734375	565.5426635742189	1243.000122070313	-1306.5908203125	-90.63893127441408	1254.362915039063	-913.8135375976565	53.87255859375001	1217.767822265625	-790.4166259765627	83.26405334472658	1239.739868164063	-823.4737548828127	123.5832061767578	1213.668090820313	-785.657165527344	190.1793060302735	1213.757446289063	-794.007263183594	189.856185913086	1139.148681640625	-816.1489257812502	469.0720825195314	1219.738159179688	-913.1922607421877	485.2882385253907	1230.50048828125	-833.8522949218752	563.2780761718751	1241.4501953125	-918.5254516601565	-320.4210815429688	795.1961059570315	-1159.009155273438	-340.7173156738282	754.8265380859376	-891.160339355469	-451.0410156250001	947.975036621094	-1008.689208984375	-474.1934814453126	938.398376464844	-1042.232788085938	-478.9783630371095	921.0107421875002	-987.9128417968752	-295.7414855957032	680.9259033203126	-1224.349609375	-218.5961914062501	648.2041015625001	-1209.63916015625	-186.8524780273438	683.6584472656251	-1195.160766601563	-202.8651885986329	591.6559448242189	-1200.99462890625	-94.52144622802736	494.7249755859376	-1144.06201171875	-107.4564819335938	491.9939270019532	-1017.329040527344	-152.4275665283203	295.7801208496094	-1047.3408203125	-192.0526275634766	258.2066650390626	-1120.024658203125	-171.9147186279297	248.1129150390626	-1078.599731445313	-222.6293182373047	190.5137176513672	-1043.277954101563	-324.6276550292969	107.7649765014649	-1094.712768554688	-397.1009826660157	81.8763885498047	-1043.474609375	-182.4778900146485	58.07660293579103	-1057.920654296875	-191.231185913086	45.17979431152344	-1106.983642578125	-304.4345092773438	120.7330703735352	-1006.303466796875	-418.9076538085939	459.9541931152345	-868.208435058594	-371.7880554199219	408.7560119628907	-868.7381591796877	-338.6893310546876	412.1236572265626	-870.5782470703127	-396.3027648925782	333.8981018066407	-897.5173950195315	-408.3387756347657	301.1301269531251	-913.830993652344	-370.4580993652344	291.9198303222657	-1037.482788085938	-517.4005126953126	270.8009643554688	-988.630065917969	-593.0120849609376	343.2436523437501	-965.4068603515627	-594.7973022460939	308.5306091308594	-997.4487304687502	-620.6017456054689	327.1187438964844	-1048.787841796875	-785.6749267578127	426.3999023437501	-1048.4091796875	-749.6669311523439	420.0311584472657	-1134.744018554688	-764.1504516601564	506.8320312500001	-1079.510620117188	-872.8731079101565	337.6758422851563	-1184.60498046875	-891.9152832031252	331.2922058105469	-1148.204833984375	-924.841979980469	349.0182800292969	-1109.79052734375	-162.2438049316407	1387.100463867188	-1127.789916992188	
962	4.805	-16.42745399475098	1493.961547851563	-1067.591430664063	-160.824691772461	1386.252685546875	-982.9343261718752	-219.4593200683594	1284.334838867188	-1060.168212890625	-381.7850036621094	1021.792175292969	-1012.041442871094	-83.94010162353517	1178.3388671875	-1056.901611328125	-101.9393157958985	1242.483764648438	-1217.23388671875	32.77441787719727	1194.195556640625	-1347.184814453125	67.79479980468751	1219.475341796875	-1321.73095703125	100.1561813354492	1188.416748046875	-1363.864135742188	165.1351928710938	1194.457641601563	-1368.729370117188	171.6950836181641	1122.879638671875	-1345.032836914063	469.1918029785157	1220.510009765625	-1288.279663085938	466.6193237304689	1220.00244140625	-1368.6015625	565.2708129882814	1244.428955078125	-1306.2119140625	-90.94509124755861	1255.568603515625	-913.7120361328127	53.49949645996095	1218.862670898438	-790.316345214844	82.67080688476564	1240.8076171875	-823.4024047851565	123.0968780517578	1214.624877929688	-785.6050415039065	189.7940368652344	1214.695922851563	-793.742126464844	189.3951263427735	1140.454467773438	-816.1226196289065	468.9270935058595	1220.888671875	-913.1567382812502	485.0036010742189	1231.309692382813	-833.606384277344	562.9136962890626	1242.534423828125	-918.3157348632815	-320.8049316406251	795.7399902343752	-1158.949951171875	-340.6913757324219	755.8578491210939	-891.061462402344	-451.131561279297	948.7593383789065	-1008.626770019531	-474.3349609375001	939.1143188476565	-1042.117065429688	-479.0261840820314	921.8896484375002	-987.8311157226565	-295.1348266601563	681.1332397460939	-1223.914428710938	-218.5305786132813	648.4865112304689	-1209.338256835938	-186.9553680419922	683.8617553710939	-1194.966064453125	-203.3150329589844	591.9550170898439	-1200.387817382813	-94.76509857177736	495.1077575683595	-1143.868041992188	-107.7351226806641	492.202117919922	-1017.002380371094	-152.673324584961	295.8339233398438	-1047.15478515625	-192.0451354980469	258.3213806152344	-1119.894653320313	-171.8860168457032	247.9759979248047	-1078.403442382813	-223.1468200683594	190.9760131835938	-1043.448364257813	-324.5863952636719	107.7621994018555	-1094.603393554688	-397.0573730468751	81.8214797973633	-1043.383056640625	-182.5597534179688	58.09417724609376	-1057.850952148438	-191.3277435302735	45.23723983764649	-1106.978637695313	-304.4360961914063	120.7072906494141	-1006.181091308594	-418.477020263672	460.579315185547	-867.9829101562502	-371.0715637207032	409.7460021972657	-868.4630126953127	-338.1687622070313	413.0015563964845	-870.5469970703127	-395.4861145019532	335.0494689941407	-897.469909667969	-407.4840393066407	302.2481384277344	-913.832458496094	-370.0066833496094	293.1638183593751	-1038.23486328125	-516.4476928710939	271.7263488769532	-988.720153808594	-592.1697998046876	343.8415832519532	-965.6623535156252	-593.9376220703126	309.1345214843751	-997.7202148437502	-619.5352783203126	327.6136169433594	-1049.0244140625	-785.0186767578127	426.5797729492189	-1048.875854492188	-747.5785522460939	419.6181030273439	-1134.78955078125	-763.6414184570314	507.0834350585939	-1079.949096679688	-871.7410278320315	337.8639221191407	-1185.379028320313	-890.6240844726565	330.9232482910157	-1148.357299804688	-923.8609008789065	348.9803466796876	-1110.535278320313	-162.8835906982422	1387.889404296875	-1127.92529296875	
963	4.81	-16.9028377532959	1495.484375	-1067.5048828125	-161.3210754394532	1387.4794921875	-982.856872558594	-220.2296447753907	1285.322509765625	-1060.293334960938	-382.0176391601563	1022.786254882813	-1012.004455566406	-84.23045349121095	1179.401123046875	-1056.8466796875	-102.4982147216797	1243.715454101563	-1217.300659179688	33.21477508544923	1194.962890625	-1346.898193359375	67.20315551757814	1220.6767578125	-1321.71435546875	99.08733367919925	1189.667236328125	-1363.383056640625	164.3194885253907	1195.744750976563	-1368.907104492188	171.4656982421875	1124.016723632813	-1344.780029296875	468.7890625000001	1221.910400390625	-1288.095703125	466.6570129394532	1221.2265625	-1368.245361328125	565.3647460937501	1246.301391601563	-1305.7685546875	-91.36676025390626	1256.644165039063	-913.4976806640627	53.00936889648439	1219.93408203125	-789.9082031250002	82.2746047973633	1241.783569335938	-823.253845214844	122.7856521606446	1215.738647460938	-785.3609008789065	189.3716735839844	1215.710815429688	-793.6687622070315	189.0578765869141	1141.507568359375	-816.111755371094	468.881805419922	1221.262084960938	-912.8203125000002	484.5509643554689	1232.336791992188	-833.4602661132815	562.4861450195314	1243.0830078125	-918.344665527344	-321.0737304687501	796.530212402344	-1159.002319335938	-340.7050170898438	756.9234619140626	-891.1549072265627	-451.231414794922	949.520935058594	-1008.569458007813	-474.4236450195314	939.9597778320315	-1042.102661132813	-479.0605773925782	922.8253173828127	-987.7622680664065	-295.2345886230469	681.8308715820314	-1223.699829101563	-218.7816314697266	649.0385131835939	-1209.374145507813	-186.7794952392578	684.0398559570314	-1194.630004882813	-203.3845825195313	592.4365234375001	-1200.129150390625	-94.99210357666017	495.2002258300782	-1143.524291992188	-108.0316314697266	492.461151123047	-1016.755554199219	-152.9547576904297	296.3301696777344	-1046.85498046875	-192.2393493652344	258.4130859375001	-1119.734985351563	-172.1014099121094	248.1735382080079	-1078.203857421875	-223.2540283203126	191.0787506103516	-1043.328247070313	-324.6104125976563	107.8205184936524	-1094.432250976563	-397.0877685546876	81.84120941162111	-1043.290893554688	-181.9472961425782	58.91599273681642	-1057.831176757813	-191.3394470214844	45.31996154785157	-1106.897827148438	-304.4859008789063	120.6642837524414	-1006.002868652344	-417.907928466797	461.5252685546876	-867.8652954101565	-370.4415588378907	410.8706359863282	-868.3513183593752	-337.5064086914063	414.0259704589845	-870.253601074219	-394.7821044921876	335.9884643554688	-897.4516601562502	-406.7293090820314	303.1645507812501	-913.901306152344	-369.1599731445313	294.4068603515626	-1037.868286132813	-515.6431884765626	272.2319030761719	-989.0534667968752	-591.5628662109376	344.3223876953126	-965.8828125000002	-593.0828247070314	309.7773132324219	-998.014587402344	-618.1575927734376	328.0210876464844	-1049.430786132813	-784.2457275390627	426.9266967773439	-1049.415405273438	-747.1217041015626	420.2340698242189	-1135.349609375	-763.0534057617189	507.4386291503907	-1080.4208984375	-870.7092895507815	337.9736022949219	-1185.89697265625	-889.5389404296877	330.9878540039063	-1149.23291015625	-923.0483398437502	348.9937133789063	-1111.38232421875	-163.2584991455078	1389.33447265625	-1127.832397460938	
964	4.815	-17.41620445251465	1496.638793945313	-1067.526733398438	-161.8260498046875	1388.639404296875	-982.7336425781252	-220.6721343994141	1286.70458984375	-1060.2421875	-382.0799560546876	1023.806335449219	-1011.960021972656	-84.4422073364258	1180.871337890625	-1056.758666992188	-102.5417556762696	1244.646362304688	-1217.088134765625	32.25979232788087	1196.397338867188	-1346.935913085938	66.87911224365236	1221.948608398438	-1321.72216796875	98.96662139892581	1190.677001953125	-1363.184326171875	164.2047882080078	1196.8896484375	-1368.461669921875	171.0846252441407	1125.218383789063	-1344.857421875	468.5810852050782	1223.207397460938	-1287.809204101563	465.8746643066407	1222.51806640625	-1368.0791015625	564.3092041015626	1246.996826171875	-1305.577514648438	-91.75097656250001	1257.914306640625	-913.5222778320315	52.61113739013673	1221.01708984375	-789.8278808593752	81.95151519775392	1243.125610351563	-823.004577636719	122.2073822021485	1216.641723632813	-785.266540527344	188.9397277832032	1216.906005859375	-793.5922851562502	188.637451171875	1142.58544921875	-816.0498046875002	468.0895080566407	1223.003295898438	-912.7807617187502	484.1836242675782	1233.365112304688	-833.4010009765627	562.2378540039064	1244.554565429688	-918.1817016601565	-321.1832885742188	797.3045654296877	-1158.880859375	-340.5456542968751	757.9613647460939	-890.9645996093752	-451.2342834472657	950.475036621094	-1008.543090820313	-474.5181274414064	940.8076782226565	-1042.05615234375	-479.1219787597657	923.7056884765627	-987.6405029296877	-295.1859741210938	682.3075561523439	-1223.461791992188	-218.730209350586	649.0499877929689	-1209.099975585938	-186.8831634521485	684.3178100585939	-1194.332153320313	-203.4543151855469	592.8068847656251	-1199.92333984375	-95.2330780029297	495.4842834472657	-1143.320556640625	-108.367301940918	492.7567138671876	-1016.478393554688	-153.137451171875	296.4821777343751	-1046.733520507813	-192.3524475097657	258.4480590820313	-1119.553466796875	-172.2123260498047	248.1649627685547	-1077.739990234375	-222.9898071289063	191.6357879638672	-1042.885620117188	-324.5956115722657	107.8150405883789	-1094.359619140625	-397.1142883300782	81.77047729492189	-1043.22412109375	-182.581527709961	57.93054199218751	-1057.66259765625	-191.1728515625	45.33881378173829	-1106.798461914063	-304.4982604980469	120.6094360351563	-1005.831481933594	-417.505828857422	462.4925537109376	-867.8201904296877	-369.6493530273438	412.2965087890626	-868.3161621093752	-336.9508361816407	415.0971679687501	-870.1906738281252	-394.0871887207032	336.9855957031251	-897.4390258789065	-405.9588012695314	304.1023559570313	-913.9669189453127	-374.5046386718751	294.6699218750001	-1022.194885253906	-514.6631469726564	273.0418090820313	-989.357116699219	-590.6265258789064	345.4624023437501	-966.0417480468752	-592.2907714843751	310.1593322753907	-998.486511230469	-617.8862304687501	328.8411560058594	-1049.531127929688	-783.5982055664065	427.1517944335939	-1049.890014648438	-746.3639526367189	420.7502746582032	-1135.692626953125	-762.5124511718751	507.6169738769532	-1080.976440429688	-869.7285766601565	338.2964477539063	-1186.5	-888.5264282226565	331.1310119628907	-1149.858642578125	-921.9378051757815	348.9122314453126	-1112.2041015625	-163.7496337890625	1390.555908203125	-1127.959106445313	
